solid Untitled-54d6e313
facet normal 0.4357526703230063 0.43575267032300596 0.7875526779922337
  outer loop
    vertex 6.738538379022371 6.738538379022371 3.743342591040797
    vertex 5.709648928819018 9.889402038095751 2.0148372571648814
    vertex 4.764866183092526 8.25299032038304 3.743342591040797
  endloop
endfacet
facet normal 0.3682403706857643 0.6378110314257405 0.6764585113581202
  outer loop
    vertex 5.709648928819018 9.889402038095751 2.0148372571648814
    vertex 6.738538379022371 6.738538379022371 3.743342591040797
    vertex 8.074662951524866 8.074662951524868 2.0148372571648814
  endloop
endfacet
facet normal 0.044143442111058834 0.16474556877944702 0.9853477833161872
  outer loop
    vertex 0.6605639481089018 2.4652582159907124 6.789415967660127
    vertex -1.0574874309554614e-15 5.035414989115689 6.1633596402319935
    vertex -1.4099832412739487e-15 2.5522231095754404 6.789415967660127
  endloop
endfacet
facet normal 9.782579263802496e-17 0.32948247864077873 0.9441616896849442
  outer loop
    vertex -1.0574874309554614e-15 5.035414989115689 6.1633596402319935
    vertex 0.6605639481089018 2.4652582159907124 6.789415967660127
    vertex 1.3032612991778434 4.863837384069932 6.1633596402319935
  endloop
endfacet
facet normal 0.7599618749497853 0.20363117067123682 0.617245733038203
  outer loop
    vertex 12.557035741757884 3.3646475863327683 0.0
    vertex 9.889402038095753 5.709648928819014 2.0148372571648814
    vertex 11.030194718780002 2.955531767255136 2.0148372571648814
  endloop
endfacet
facet normal 0.6378110314257406 0.3682403706857641 0.6764585113581201
  outer loop
    vertex 9.889402038095753 5.709648928819014 2.0148372571648814
    vertex 12.557035741757884 3.3646475863327683 0.0
    vertex 11.2583302491977 6.4999999999999964 0.0
  endloop
endfacet
facet normal 0.08527634049981811 0.3182556354288645 0.9441616896849442
  outer loop
    vertex 1.3032612991778434 4.863837384069932 6.1633596402319935
    vertex -7.049916206369744e-16 7.382411530116703 5.138764270216727
    vertex -1.0574874309554614e-15 5.035414989115689 6.1633596402319935
  endloop
endfacet
facet normal 1.2921985756819218e-16 0.47937474551494613 0.8776103083729592
  outer loop
    vertex -7.049916206369744e-16 7.382411530116703 5.138764270216727
    vertex 1.3032612991778434 4.863837384069932 6.1633596402319935
    vertex 1.9107087027786454 7.130861957233922 5.138764270216727
  endloop
endfacet
facet normal 0.15949654710512576 0.5952492174281319 0.7875526779922336
  outer loop
    vertex 2.4664762310986017 9.205014610120969 3.743342591040797
    vertex 0.0 11.419297857638032 2.0148372571648814
    vertex -3.524958103184872e-16 9.529732366185048 3.743342591040797
  endloop
endfacet
facet normal 1.0294067159692667e-16 0.7364807413715282 0.6764585113581201
  outer loop
    vertex 0.0 11.419297857638032 2.0148372571648814
    vertex 2.4664762310986017 9.205014610120969 3.743342591040797
    vertex 2.955531767255138 11.030194718780002 2.0148372571648814
  endloop
endfacet
facet normal 1.0294067159692667e-16 0.7364807413715282 0.6764585113581201
  outer loop
    vertex 0.0 11.419297857638032 2.0148372571648814
    vertex 3.3646475863327714 12.557035741757883 0.0
    vertex 7.960204194457793e-16 12.999999999999996 0.0
  endloop
endfacet
facet normal 0.203631170671237 0.7599618749497856 0.6172457330382025
  outer loop
    vertex 3.3646475863327714 12.557035741757883 0.0
    vertex 0.0 11.419297857638032 2.0148372571648814
    vertex 2.955531767255138 11.030194718780002 2.0148372571648814
  endloop
endfacet
facet normal 0.30812366810554387 0.5336858481732917 0.7875526779922338
  outer loop
    vertex 4.764866183092526 8.25299032038304 3.743342591040797
    vertex 2.955531767255138 11.030194718780002 2.0148372571648814
    vertex 2.4664762310986017 9.205014610120969 3.743342591040797
  endloop
endfacet
facet normal 0.1906152422181755 0.7113857686552791 0.6764585113581202
  outer loop
    vertex 2.955531767255138 11.030194718780002 2.0148372571648814
    vertex 4.764866183092526 8.25299032038304 3.743342591040797
    vertex 5.709648928819018 9.889402038095751 2.0148372571648814
  endloop
endfacet
facet normal 4.114268327062429e-17 -4.864844305648142e-19 0.9999999999999999
  outer loop
    vertex 1.5862311464331924e-15 -7.049916206369744e-16 7.0
    vertex -1.4099832412739487e-15 2.5522231095754404 6.789415967660127
    vertex -0.6605639481089016 2.4652582159907133 6.789415967660127
  endloop
endfacet
facet normal 0.3682403706857643 0.6378110314257405 0.6764585113581202
  outer loop
    vertex 5.709648928819018 9.889402038095751 2.0148372571648814
    vertex 9.192388155425116 9.192388155425114 0.0
    vertex 6.499999999999999 11.258330249197698 0.0
  endloop
endfacet
facet normal 0.5563307042785487 0.5563307042785485 0.6172457330382025
  outer loop
    vertex 9.192388155425116 9.192388155425114 0.0
    vertex 5.709648928819018 9.889402038095751 2.0148372571648814
    vertex 8.074662951524866 8.074662951524868 2.0148372571648814
  endloop
endfacet
facet normal -0.04414344211105883 0.16474556877944702 0.9853477833161872
  outer loop
    vertex -0.6605639481089016 2.4652582159907133 6.789415967660127
    vertex -1.0574874309554614e-15 5.035414989115689 6.1633596402319935
    vertex -1.3032612991778425 4.8638373840699325 6.1633596402319935
  endloop
endfacet
facet normal 9.782579263802496e-17 0.32948247864077873 0.9441616896849442
  outer loop
    vertex -1.0574874309554614e-15 5.035414989115689 6.1633596402319935
    vertex -0.6605639481089016 2.4652582159907133 6.789415967660127
    vertex -1.4099832412739487e-15 2.5522231095754404 6.789415967660127
  endloop
endfacet
facet normal 0.164745568779447 0.04414344211105881 0.9853477833161873
  outer loop
    vertex 2.465258215990712 0.6605639481089012 6.789415967660127
    vertex 4.3607972991711295 2.5177074945578446 6.1633596402319935
    vertex 2.2102900490180457 1.2761115547877198 6.789415967660127
  endloop
endfacet
facet normal 0.285340196604778 0.16474123932038937 0.9441616896849442
  outer loop
    vertex 4.3607972991711295 2.5177074945578446 6.1633596402319935
    vertex 2.465258215990712 0.6605639481089012 6.789415967660127
    vertex 4.8638373840699325 1.3032612991778427 6.1633596402319935
  endloop
endfacet
facet normal -0.15949654710512562 0.595249217428132 0.7875526779922338
  outer loop
    vertex -2.4664762310985986 9.20501461012097 3.743342591040797
    vertex 0.0 11.419297857638032 2.0148372571648814
    vertex -2.9555317672551347 11.030194718780004 2.0148372571648814
  endloop
endfacet
facet normal 1.0294067159692667e-16 0.7364807413715282 0.6764585113581201
  outer loop
    vertex 0.0 11.419297857638032 2.0148372571648814
    vertex -2.4664762310985986 9.20501461012097 3.743342591040797
    vertex -3.524958103184872e-16 9.529732366185048 3.743342591040797
  endloop
endfacet
facet normal -0.19061524221817544 0.7113857686552791 0.6764585113581202
  outer loop
    vertex -2.9555317672551347 11.030194718780004 2.0148372571648814
    vertex 7.960204194457793e-16 12.999999999999996 0.0
    vertex -3.364647586332767 12.557035741757884 0.0
  endloop
endfacet
facet normal 1.0299177853892365e-16 0.7867704271552991 0.6172457330382024
  outer loop
    vertex 7.960204194457793e-16 12.999999999999996 0.0
    vertex -2.9555317672551347 11.030194718780004 2.0148372571648814
    vertex 0.0 11.419297857638032 2.0148372571648814
  endloop
endfacet
facet normal 0.12060212666838815 0.12060212666838817 0.9853477833161873
  outer loop
    vertex 1.8046942678818096 1.8046942678818114 6.789415967660127
    vertex 1.2761115547877195 2.2102900490180466 6.789415967660127
    vertex 1.5862311464331924e-15 -7.049916206369744e-16 7.0
  endloop
endfacet
facet normal 0.17055716318547223 -1.1096801572035844e-18 0.9853477833161873
  outer loop
    vertex 2.55222310957544 -3.524958103184872e-16 6.789415967660127
    vertex 4.8638373840699325 1.3032612991778427 6.1633596402319935
    vertex 2.465258215990712 0.6605639481089012 6.789415967660127
  endloop
endfacet
facet normal 0.3182556354288646 0.08527634049981801 0.9441616896849442
  outer loop
    vertex 4.8638373840699325 1.3032612991778427 6.1633596402319935
    vertex 2.55222310957544 -3.524958103184872e-16 6.789415967660127
    vertex 5.035414989115689 -3.524958103184872e-16 6.1633596402319935
  endloop
endfacet
facet normal 0.5952492174281319 0.15949654710512562 0.7875526779922337
  outer loop
    vertex 9.20501461012097 2.4664762310985995 3.743342591040797
    vertex 9.889402038095753 5.709648928819014 2.0148372571648814
    vertex 8.252990320383041 4.764866183092523 3.743342591040797
  endloop
endfacet
facet normal 0.6378110314257406 0.3682403706857641 0.6764585113581201
  outer loop
    vertex 9.889402038095753 5.709648928819014 2.0148372571648814
    vertex 9.20501461012097 2.4664762310985995 3.743342591040797
    vertex 11.030194718780002 2.955531767255136 2.0148372571648814
  endloop
endfacet
facet normal 0.14770683611602717 0.08527858159273627 0.9853477833161873
  outer loop
    vertex 2.2102900490180457 1.2761115547877198 6.789415967660127
    vertex 1.8046942678818096 1.8046942678818114 6.789415967660127
    vertex 1.5862311464331924e-15 -7.049916206369744e-16 7.0
  endloop
endfacet
facet normal 0.681363176862823 0.3933852135776495 0.6172457330382026
  outer loop
    vertex 11.2583302491977 6.4999999999999964 0.0
    vertex 8.074662951524866 8.074662951524868 2.0148372571648814
    vertex 9.889402038095753 5.709648928819014 2.0148372571648814
  endloop
endfacet
facet normal 0.5207705264371038 0.5207705264371034 0.6764585113581201
  outer loop
    vertex 8.074662951524866 8.074662951524868 2.0148372571648814
    vertex 11.2583302491977 6.4999999999999964 0.0
    vertex 9.192388155425116 9.192388155425114 0.0
  endloop
endfacet
facet normal 0.16474123932038945 0.2853401966047781 0.9441616896849443
  outer loop
    vertex 2.5177074945578446 4.3607972991711295 6.1633596402319935
    vertex 1.9107087027786454 7.130861957233922 5.138764270216727
    vertex 1.3032612991778434 4.863837384069932 6.1633596402319935
  endloop
endfacet
facet normal 0.12407131388044232 0.46304044716363607 0.8776103083729593
  outer loop
    vertex 1.9107087027786454 7.130861957233922 5.138764270216727
    vertex 2.5177074945578446 4.3607972991711295 6.1633596402319935
    vertex 3.6912057650583523 6.393355926272213 5.138764270216727
  endloop
endfacet
facet normal 0.12407131388044232 0.46304044716363607 0.8776103083729593
  outer loop
    vertex 1.9107087027786454 7.130861957233922 5.138764270216727
    vertex -3.524958103184872e-16 9.529732366185048 3.743342591040797
    vertex -7.049916206369744e-16 7.382411530116703 5.138764270216727
  endloop
endfacet
facet normal 1.3843932387272017e-16 0.6162473362110874 0.7875526779922338
  outer loop
    vertex -3.524958103184872e-16 9.529732366185048 3.743342591040797
    vertex 1.9107087027786454 7.130861957233922 5.138764270216727
    vertex 2.4664762310986017 9.205014610120969 3.743342591040797
  endloop
endfacet
facet normal 0.5336858481732918 0.3081236681055437 0.7875526779922338
  outer loop
    vertex 8.252990320383041 4.764866183092523 3.743342591040797
    vertex 8.074662951524866 8.074662951524868 2.0148372571648814
    vertex 6.738538379022371 6.738538379022371 3.743342591040797
  endloop
endfacet
facet normal 0.5207705264371038 0.5207705264371034 0.6764585113581201
  outer loop
    vertex 8.074662951524866 8.074662951524868 2.0148372571648814
    vertex 8.252990320383041 4.764866183092523 3.743342591040797
    vertex 9.889402038095753 5.709648928819014 2.0148372571648814
  endloop
endfacet
facet normal -0.08527634049981803 0.31825563542886454 0.9441616896849443
  outer loop
    vertex -1.3032612991778425 4.8638373840699325 6.1633596402319935
    vertex -7.049916206369744e-16 7.382411530116703 5.138764270216727
    vertex -1.9107087027786436 7.130861957233923 5.138764270216727
  endloop
endfacet
facet normal 1.2921985756819218e-16 0.47937474551494613 0.8776103083729592
  outer loop
    vertex -7.049916206369744e-16 7.382411530116703 5.138764270216727
    vertex -1.3032612991778425 4.8638373840699325 6.1633596402319935
    vertex -1.0574874309554614e-15 5.035414989115689 6.1633596402319935
  endloop
endfacet
facet normal -0.12407131388044212 0.46304044716363624 0.8776103083729592
  outer loop
    vertex -1.9107087027786436 7.130861957233923 5.138764270216727
    vertex -3.524958103184872e-16 9.529732366185048 3.743342591040797
    vertex -2.4664762310985986 9.20501461012097 3.743342591040797
  endloop
endfacet
facet normal 1.3843932387272017e-16 0.6162473362110874 0.7875526779922338
  outer loop
    vertex -3.524958103184872e-16 9.529732366185048 3.743342591040797
    vertex -1.9107087027786436 7.130861957233923 5.138764270216727
    vertex -7.049916206369744e-16 7.382411530116703 5.138764270216727
  endloop
endfacet
facet normal 0.46304044716363607 0.12407131388044217 0.8776103083729593
  outer loop
    vertex 7.130861957233922 1.9107087027786442 5.138764270216727
    vertex 8.252990320383041 4.764866183092523 3.743342591040797
    vertex 6.393355926272213 3.691205765058351 5.138764270216727
  endloop
endfacet
facet normal 0.5336858481732918 0.3081236681055437 0.7875526779922338
  outer loop
    vertex 8.252990320383041 4.764866183092523 3.743342591040797
    vertex 7.130861957233922 1.9107087027786442 5.138764270216727
    vertex 9.20501461012097 2.4664762310985995 3.743342591040797
  endloop
endfacet
facet normal 0.285340196604778 0.16474123932038937 0.9441616896849442
  outer loop
    vertex 4.3607972991711295 2.5177074945578446 6.1633596402319935
    vertex 5.220153254455277 5.220153254455276 5.138764270216727
    vertex 3.5605760848920895 3.5605760848920895 6.1633596402319935
  endloop
endfacet
facet normal 0.338969133283194 0.3389691332831938 0.8776103083729593
  outer loop
    vertex 5.220153254455277 5.220153254455276 5.138764270216727
    vertex 4.3607972991711295 2.5177074945578446 6.1633596402319935
    vertex 6.393355926272213 3.691205765058351 5.138764270216727
  endloop
endfacet
facet normal 0.32948247864077873 -9.560247916897895e-17 0.9441616896849443
  outer loop
    vertex 5.035414989115689 -3.524958103184872e-16 6.1633596402319935
    vertex 7.130861957233922 1.9107087027786442 5.138764270216727
    vertex 4.8638373840699325 1.3032612991778427 6.1633596402319935
  endloop
endfacet
facet normal 0.46304044716363607 0.12407131388044217 0.8776103083729593
  outer loop
    vertex 7.130861957233922 1.9107087027786442 5.138764270216727
    vertex 5.035414989115689 -3.524958103184872e-16 6.1633596402319935
    vertex 7.382411530116702 -3.524958103184872e-16 5.138764270216727
  endloop
endfacet
facet normal 0.7867704271552991 -1.9662066811976335e-16 0.6172457330382026
  outer loop
    vertex 12.999999999999996 0.0 0.0
    vertex 11.030194718780002 2.955531767255136 2.0148372571648814
    vertex 11.41929785763803 -1.762479051592436e-16 2.0148372571648814
  endloop
endfacet
facet normal 0.7113857686552791 0.19061524221817547 0.6764585113581203
  outer loop
    vertex 11.030194718780002 2.955531767255136 2.0148372571648814
    vertex 12.999999999999996 0.0 0.0
    vertex 12.557035741757884 3.3646475863327683 0.0
  endloop
endfacet
facet normal 0.12060212666838815 0.12060212666838817 0.9853477833161873
  outer loop
    vertex 1.8046942678818096 1.8046942678818114 6.789415967660127
    vertex 2.5177074945578446 4.3607972991711295 6.1633596402319935
    vertex 1.2761115547877195 2.2102900490180466 6.789415967660127
  endloop
endfacet
facet normal 0.16474123932038945 0.2853401966047781 0.9441616896849443
  outer loop
    vertex 2.5177074945578446 4.3607972991711295 6.1633596402319935
    vertex 1.8046942678818096 1.8046942678818114 6.789415967660127
    vertex 3.5605760848920895 3.5605760848920895 6.1633596402319935
  endloop
endfacet
facet normal 0.23968737275747315 0.4151507075486437 0.8776103083729592
  outer loop
    vertex 3.6912057650583523 6.393355926272213 5.138764270216727
    vertex 2.4664762310986017 9.205014610120969 3.743342591040797
    vertex 1.9107087027786454 7.130861957233922 5.138764270216727
  endloop
endfacet
facet normal 0.15949654710512576 0.5952492174281319 0.7875526779922336
  outer loop
    vertex 2.4664762310986017 9.205014610120969 3.743342591040797
    vertex 3.6912057650583523 6.393355926272213 5.138764270216727
    vertex 4.764866183092526 8.25299032038304 3.743342591040797
  endloop
endfacet
facet normal 0.14770683611602717 0.08527858159273627 0.9853477833161873
  outer loop
    vertex 2.2102900490180457 1.2761115547877198 6.789415967660127
    vertex 3.5605760848920895 3.5605760848920895 6.1633596402319935
    vertex 1.8046942678818096 1.8046942678818114 6.789415967660127
  endloop
endfacet
facet normal 0.23297929492904645 0.2329792949290464 0.9441616896849443
  outer loop
    vertex 3.5605760848920895 3.5605760848920895 6.1633596402319935
    vertex 2.2102900490180457 1.2761115547877198 6.789415967660127
    vertex 4.3607972991711295 2.5177074945578446 6.1633596402319935
  endloop
endfacet
facet normal 0.23297929492904645 0.2329792949290464 0.9441616896849443
  outer loop
    vertex 3.5605760848920895 3.5605760848920895 6.1633596402319935
    vertex 3.6912057650583523 6.393355926272213 5.138764270216727
    vertex 2.5177074945578446 4.3607972991711295 6.1633596402319935
  endloop
endfacet
facet normal 0.23968737275747315 0.4151507075486437 0.8776103083729592
  outer loop
    vertex 3.6912057650583523 6.393355926272213 5.138764270216727
    vertex 3.5605760848920895 3.5605760848920895 6.1633596402319935
    vertex 5.220153254455277 5.220153254455276 5.138764270216727
  endloop
endfacet
facet normal 0.6162473362110876 -2.3222080133488544e-16 0.7875526779922337
  outer loop
    vertex 9.529732366185048 -2.6437185773886536e-16 3.743342591040797
    vertex 11.030194718780002 2.955531767255136 2.0148372571648814
    vertex 9.20501461012097 2.4664762310985995 3.743342591040797
  endloop
endfacet
facet normal 0.7113857686552791 0.19061524221817547 0.6764585113581203
  outer loop
    vertex 11.030194718780002 2.955531767255136 2.0148372571648814
    vertex 9.529732366185048 -2.6437185773886536e-16 3.743342591040797
    vertex 11.41929785763803 -1.762479051592436e-16 2.0148372571648814
  endloop
endfacet
facet normal 0.08527858159273624 0.1477068361160272 0.9853477833161872
  outer loop
    vertex 1.2761115547877195 2.2102900490180466 6.789415967660127
    vertex 0.6605639481089018 2.4652582159907124 6.789415967660127
    vertex 1.5862311464331924e-15 -7.049916206369744e-16 7.0
  endloop
endfacet
facet normal 0.47937474551494624 -2.1165321498238376e-16 0.8776103083729592
  outer loop
    vertex 7.382411530116702 -3.524958103184872e-16 5.138764270216727
    vertex 9.20501461012097 2.4664762310985995 3.743342591040797
    vertex 7.130861957233922 1.9107087027786442 5.138764270216727
  endloop
endfacet
facet normal 0.5952492174281319 0.15949654710512562 0.7875526779922337
  outer loop
    vertex 9.20501461012097 2.4664762310985995 3.743342591040797
    vertex 7.382411530116702 -3.524958103184872e-16 5.138764270216727
    vertex 9.529732366185048 -2.6437185773886536e-16 3.743342591040797
  endloop
endfacet
facet normal 0.17055716318547223 -1.1096801572035844e-18 0.9853477833161873
  outer loop
    vertex 2.55222310957544 -3.524958103184872e-16 6.789415967660127
    vertex 2.465258215990712 0.6605639481089012 6.789415967660127
    vertex 1.5862311464331924e-15 -7.049916206369744e-16 7.0
  endloop
endfacet
facet normal 0.3182556354288646 0.08527634049981801 0.9441616896849442
  outer loop
    vertex 4.8638373840699325 1.3032612991778427 6.1633596402319935
    vertex 6.393355926272213 3.691205765058351 5.138764270216727
    vertex 4.3607972991711295 2.5177074945578446 6.1633596402319935
  endloop
endfacet
facet normal 0.41515070754864364 0.23968737275747304 0.8776103083729593
  outer loop
    vertex 6.393355926272213 3.691205765058351 5.138764270216727
    vertex 4.8638373840699325 1.3032612991778427 6.1633596402319935
    vertex 7.130861957233922 1.9107087027786442 5.138764270216727
  endloop
endfacet
facet normal 0.338969133283194 0.3389691332831938 0.8776103083729593
  outer loop
    vertex 5.220153254455277 5.220153254455276 5.138764270216727
    vertex 4.764866183092526 8.25299032038304 3.743342591040797
    vertex 3.6912057650583523 6.393355926272213 5.138764270216727
  endloop
endfacet
facet normal 0.30812366810554387 0.5336858481732917 0.7875526779922338
  outer loop
    vertex 4.764866183092526 8.25299032038304 3.743342591040797
    vertex 5.220153254455277 5.220153254455276 5.138764270216727
    vertex 6.738538379022371 6.738538379022371 3.743342591040797
  endloop
endfacet
facet normal 0.08527858159273624 0.1477068361160272 0.9853477833161872
  outer loop
    vertex 1.2761115547877195 2.2102900490180466 6.789415967660127
    vertex 1.3032612991778434 4.863837384069932 6.1633596402319935
    vertex 0.6605639481089018 2.4652582159907124 6.789415967660127
  endloop
endfacet
facet normal 0.08527634049981811 0.3182556354288645 0.9441616896849442
  outer loop
    vertex 1.3032612991778434 4.863837384069932 6.1633596402319935
    vertex 1.2761115547877195 2.2102900490180466 6.789415967660127
    vertex 2.5177074945578446 4.3607972991711295 6.1633596402319935
  endloop
endfacet
facet normal 0.164745568779447 0.04414344211105881 0.9853477833161873
  outer loop
    vertex 2.465258215990712 0.6605639481089012 6.789415967660127
    vertex 2.2102900490180457 1.2761115547877198 6.789415967660127
    vertex 1.5862311464331924e-15 -7.049916206369744e-16 7.0
  endloop
endfacet
facet normal 0.41515070754864364 0.23968737275747304 0.8776103083729593
  outer loop
    vertex 6.393355926272213 3.691205765058351 5.138764270216727
    vertex 6.738538379022371 6.738538379022371 3.743342591040797
    vertex 5.220153254455277 5.220153254455276 5.138764270216727
  endloop
endfacet
facet normal 0.4357526703230063 0.43575267032300596 0.7875526779922337
  outer loop
    vertex 6.738538379022371 6.738538379022371 3.743342591040797
    vertex 6.393355926272213 3.691205765058351 5.138764270216727
    vertex 8.252990320383041 4.764866183092523 3.743342591040797
  endloop
endfacet
facet normal 0.1906152422181755 0.7113857686552791 0.6764585113581202
  outer loop
    vertex 2.955531767255138 11.030194718780002 2.0148372571648814
    vertex 6.499999999999999 11.258330249197698 0.0
    vertex 3.3646475863327714 12.557035741757883 0.0
  endloop
endfacet
facet normal 0.39338521357764966 0.6813631768628232 0.6172457330382024
  outer loop
    vertex 6.499999999999999 11.258330249197698 0.0
    vertex 2.955531767255138 11.030194718780002 2.0148372571648814
    vertex 5.709648928819018 9.889402038095751 2.0148372571648814
  endloop
endfacet
facet normal 0.044143442111058834 0.16474556877944702 0.9853477833161872
  outer loop
    vertex 0.6605639481089018 2.4652582159907124 6.789415967660127
    vertex -1.4099832412739487e-15 2.5522231095754404 6.789415967660127
    vertex 1.5862311464331924e-15 -7.049916206369744e-16 7.0
  endloop
endfacet
facet normal -0.4151507075486439 0.23968737275747326 0.8776103083729592
  outer loop
    vertex -6.393355926272214 3.6912057650583536 5.138764270216727
    vertex -6.738538379022372 6.738538379022367 3.743342591040797
    vertex -8.252990320383038 4.764866183092526 3.743342591040797
  endloop
endfacet
facet normal -0.435752670323006 0.43575267032300613 0.7875526779922338
  outer loop
    vertex -6.738538379022372 6.738538379022367 3.743342591040797
    vertex -6.393355926272214 3.6912057650583536 5.138764270216727
    vertex -5.220153254455281 5.220153254455276 5.138764270216727
  endloop
endfacet
facet normal 4.114268327062429e-17 -4.864844305648142e-19 0.9999999999999999
  outer loop
    vertex 1.5862311464331924e-15 -7.049916206369744e-16 7.0
    vertex -2.2102900490180493 1.2761115547877202 6.789415967660127
    vertex -2.4652582159907146 0.6605639481089043 6.789415967660127
  endloop
endfacet
facet normal -0.6378110314257405 0.3682403706857644 0.6764585113581202
  outer loop
    vertex -9.889402038095753 5.7096489288190195 2.0148372571648814
    vertex -12.557035741757883 3.364647586332772 0.0
    vertex -11.030194718780004 2.955531767255141 2.0148372571648814
  endloop
endfacet
facet normal -0.7599618749497857 0.20363117067123715 0.617245733038202
  outer loop
    vertex -12.557035741757883 3.364647586332772 0.0
    vertex -9.889402038095753 5.7096489288190195 2.0148372571648814
    vertex -11.258330249197696 6.500000000000002 0.0
  endloop
endfacet
facet normal -0.4630404471636365 -0.12407131388044221 0.8776103083729591
  outer loop
    vertex -7.130861957233925 -1.910708702778641 5.138764270216727
    vertex -5.035414989115692 -2.114974861910923e-15 6.1633596402319935
    vertex -7.382411530116705 -1.4099832412739487e-15 5.138764270216727
  endloop
endfacet
facet normal -0.32948247864077873 6.447609060233465e-17 0.9441616896849443
  outer loop
    vertex -5.035414989115692 -2.114974861910923e-15 6.1633596402319935
    vertex -7.130861957233925 -1.910708702778641 5.138764270216727
    vertex -4.863837384069935 -1.3032612991778405 6.1633596402319935
  endloop
endfacet
facet normal -0.41515070754864425 -0.23968737275747326 0.8776103083729591
  outer loop
    vertex -6.393355926272216 -3.6912057650583523 5.138764270216727
    vertex -4.863837384069935 -1.3032612991778405 6.1633596402319935
    vertex -7.130861957233925 -1.910708702778641 5.138764270216727
  endloop
endfacet
facet normal -0.3182556354288645 -0.08527634049981797 0.9441616896849442
  outer loop
    vertex -4.863837384069935 -1.3032612991778405 6.1633596402319935
    vertex -6.393355926272216 -3.6912057650583523 5.138764270216727
    vertex -4.360797299171131 -2.517707494557846 6.1633596402319935
  endloop
endfacet
facet normal -0.16474123932038937 0.28534019660477805 0.9441616896849443
  outer loop
    vertex -2.5177074945578446 4.3607972991711295 6.1633596402319935
    vertex -1.9107087027786436 7.130861957233923 5.138764270216727
    vertex -3.691205765058351 6.393355926272214 5.138764270216727
  endloop
endfacet
facet normal -0.12407131388044212 0.46304044716363624 0.8776103083729592
  outer loop
    vertex -1.9107087027786436 7.130861957233923 5.138764270216727
    vertex -2.5177074945578446 4.3607972991711295 6.1633596402319935
    vertex -1.3032612991778425 4.8638373840699325 6.1633596402319935
  endloop
endfacet
facet normal 4.114268327062429e-17 -4.864844305648142e-19 0.9999999999999999
  outer loop
    vertex 1.5862311464331924e-15 -7.049916206369744e-16 7.0
    vertex -2.210290049018048 -1.2761115547877238 6.789415967660127
    vertex -1.8046942678818116 -1.8046942678818156 6.789415967660127
  endloop
endfacet
facet normal -0.3389691332831945 -0.33896913328319395 0.877610308372959
  outer loop
    vertex -5.220153254455281 -5.220153254455278 5.138764270216727
    vertex -4.360797299171131 -2.517707494557846 6.1633596402319935
    vertex -6.393355926272216 -3.6912057650583523 5.138764270216727
  endloop
endfacet
facet normal -0.28534019660477816 -0.1647412393203893 0.9441616896849443
  outer loop
    vertex -4.360797299171131 -2.517707494557846 6.1633596402319935
    vertex -5.220153254455281 -5.220153254455278 5.138764270216727
    vertex -3.5605760848920918 -3.560576084892092 6.1633596402319935
  endloop
endfacet
facet normal -0.5207705264371038 -0.5207705264371033 0.6764585113581202
  outer loop
    vertex -8.074662951524871 -8.074662951524866 2.0148372571648814
    vertex -8.25299032038304 -4.764866183092521 3.743342591040797
    vertex -9.889402038095755 -5.709648928819013 2.0148372571648814
  endloop
endfacet
facet normal -0.5336858481732917 -0.3081236681055436 0.7875526779922338
  outer loop
    vertex -8.25299032038304 -4.764866183092521 3.743342591040797
    vertex -8.074662951524871 -8.074662951524866 2.0148372571648814
    vertex -6.738538379022371 -6.738538379022367 3.743342591040797
  endloop
endfacet
facet normal -0.5952492174281319 -0.1594965471051256 0.7875526779922339
  outer loop
    vertex -9.20501461012097 -2.4664762310985955 3.743342591040797
    vertex -7.382411530116705 -1.4099832412739487e-15 5.138764270216727
    vertex -9.529732366185048 -3.524958103184872e-16 3.743342591040797
  endloop
endfacet
facet normal -0.4793747455149464 1.3144778614695413e-16 0.8776103083729592
  outer loop
    vertex -7.382411530116705 -1.4099832412739487e-15 5.138764270216727
    vertex -9.20501461012097 -2.4664762310985955 3.743342591040797
    vertex -7.130861957233925 -1.910708702778641 5.138764270216727
  endloop
endfacet
facet normal -0.5207705264371038 -0.5207705264371033 0.6764585113581202
  outer loop
    vertex -8.074662951524871 -8.074662951524866 2.0148372571648814
    vertex -11.258330249197702 -6.499999999999994 0.0
    vertex -9.19238815542512 -9.19238815542511 0.0
  endloop
endfacet
facet normal -0.6813631768628239 -0.3933852135776497 0.6172457330382021
  outer loop
    vertex -11.258330249197702 -6.499999999999994 0.0
    vertex -8.074662951524871 -8.074662951524866 2.0148372571648814
    vertex -9.889402038095755 -5.709648928819013 2.0148372571648814
  endloop
endfacet
facet normal -0.7113857686552791 -0.19061524221817527 0.6764585113581202
  outer loop
    vertex -11.030194718780008 -2.955531767255132 2.0148372571648814
    vertex -12.999999999999996 1.5920408388915585e-15 0.0
    vertex -12.557035741757886 -3.3646475863327634 0.0
  endloop
endfacet
facet normal -0.7867704271552997 2.7152377978443516e-16 0.6172457330382022
  outer loop
    vertex -12.999999999999996 1.5920408388915585e-15 0.0
    vertex -11.030194718780008 -2.955531767255132 2.0148372571648814
    vertex -11.419297857638034 0.0 2.0148372571648814
  endloop
endfacet
facet normal 0.08527858159273621 -0.14770683611602733 0.9853477833161872
  outer loop
    vertex 1.2761115547877184 -2.2102900490180533 6.789415967660127
    vertex 1.5862311464331924e-15 -7.049916206369744e-16 7.0
    vertex 0.6605639481089003 -2.465258215990719 6.789415967660127
  endloop
endfacet
facet normal 4.114268327062429e-17 -4.864844305648142e-19 0.9999999999999999
  outer loop
    vertex 1.5862311464331924e-15 -7.049916206369744e-16 7.0
    vertex -1.8046942678818116 -1.8046942678818156 6.789415967660127
    vertex -1.276111554787722 -2.2102900490180506 6.789415967660127
  endloop
endfacet
facet normal -0.23968737275747307 0.41515070754864386 0.8776103083729592
  outer loop
    vertex -3.691205765058351 6.393355926272214 5.138764270216727
    vertex -2.4664762310985986 9.20501461012097 3.743342591040797
    vertex -4.764866183092522 8.252990320383041 3.743342591040797
  endloop
endfacet
facet normal -0.15949654710512562 0.595249217428132 0.7875526779922338
  outer loop
    vertex -2.4664762310985986 9.20501461012097 3.743342591040797
    vertex -3.691205765058351 6.393355926272214 5.138764270216727
    vertex -1.9107087027786436 7.130861957233923 5.138764270216727
  endloop
endfacet
facet normal -0.16474123932038962 -0.28534019660477794 0.9441616896849442
  outer loop
    vertex -2.5177074945578477 -4.360797299171132 6.1633596402319935
    vertex -1.8046942678818116 -1.8046942678818156 6.789415967660127
    vertex -3.5605760848920918 -3.560576084892092 6.1633596402319935
  endloop
endfacet
facet normal -0.12060212666838827 -0.12060212666838817 0.9853477833161873
  outer loop
    vertex -1.8046942678818116 -1.8046942678818156 6.789415967660127
    vertex -2.5177074945578477 -4.360797299171132 6.1633596402319935
    vertex -1.276111554787722 -2.2102900490180506 6.789415967660127
  endloop
endfacet
facet normal -0.3081236681055437 0.5336858481732918 0.7875526779922338
  outer loop
    vertex -4.764866183092522 8.252990320383041 3.743342591040797
    vertex -2.9555317672551347 11.030194718780004 2.0148372571648814
    vertex -5.709648928819014 9.889402038095753 2.0148372571648814
  endloop
endfacet
facet normal -0.19061524221817544 0.7113857686552791 0.6764585113581202
  outer loop
    vertex -2.9555317672551347 11.030194718780004 2.0148372571648814
    vertex -4.764866183092522 8.252990320383041 3.743342591040797
    vertex -2.4664762310985986 9.20501461012097 3.743342591040797
  endloop
endfacet
facet normal -0.17055716318547254 3.661944518771829e-17 0.9853477833161872
  outer loop
    vertex -2.552223109575443 -3.1724622928663847e-15 6.789415967660127
    vertex -4.863837384069933 1.3032612991778452 6.1633596402319935
    vertex -5.035414989115692 -2.114974861910923e-15 6.1633596402319935
  endloop
endfacet
facet normal -0.3182556354288646 0.08527634049981807 0.9441616896849443
  outer loop
    vertex -4.863837384069933 1.3032612991778452 6.1633596402319935
    vertex -2.552223109575443 -3.1724622928663847e-15 6.789415967660127
    vertex -2.4652582159907146 0.6605639481089043 6.789415967660127
  endloop
endfacet
facet normal -0.5336858481732917 -0.3081236681055436 0.7875526779922338
  outer loop
    vertex -8.25299032038304 -4.764866183092521 3.743342591040797
    vertex -7.130861957233925 -1.910708702778641 5.138764270216727
    vertex -9.20501461012097 -2.4664762310985955 3.743342591040797
  endloop
endfacet
facet normal -0.4630404471636365 -0.12407131388044221 0.8776103083729591
  outer loop
    vertex -7.130861957233925 -1.910708702778641 5.138764270216727
    vertex -8.25299032038304 -4.764866183092521 3.743342591040797
    vertex -6.393355926272216 -3.6912057650583523 5.138764270216727
  endloop
endfacet
facet normal -0.16474556877944704 0.04414344211105886 0.9853477833161873
  outer loop
    vertex -2.4652582159907146 0.6605639481089043 6.789415967660127
    vertex -4.360797299171131 2.517707494557846 6.1633596402319935
    vertex -4.863837384069933 1.3032612991778452 6.1633596402319935
  endloop
endfacet
facet normal -0.28534019660477805 0.1647412393203894 0.9441616896849443
  outer loop
    vertex -4.360797299171131 2.517707494557846 6.1633596402319935
    vertex -2.4652582159907146 0.6605639481089043 6.789415967660127
    vertex -2.2102900490180493 1.2761115547877202 6.789415967660127
  endloop
endfacet
facet normal -0.23968737275747362 -0.415150707548644 0.8776103083729591
  outer loop
    vertex -3.691205765058355 -6.393355926272216 5.138764270216727
    vertex -3.5605760848920918 -3.560576084892092 6.1633596402319935
    vertex -5.220153254455281 -5.220153254455278 5.138764270216727
  endloop
endfacet
facet normal -0.23297929492904662 -0.23297929492904637 0.9441616896849443
  outer loop
    vertex -3.5605760848920918 -3.560576084892092 6.1633596402319935
    vertex -3.691205765058355 -6.393355926272216 5.138764270216727
    vertex -2.5177074945578477 -4.360797299171132 6.1633596402319935
  endloop
endfacet
facet normal -0.308123668105544 -0.5336858481732916 0.7875526779922338
  outer loop
    vertex -4.764866183092527 -8.252990320383036 3.743342591040797
    vertex -5.220153254455281 -5.220153254455278 5.138764270216727
    vertex -6.738538379022371 -6.738538379022367 3.743342591040797
  endloop
endfacet
facet normal -0.3389691332831945 -0.33896913328319395 0.877610308372959
  outer loop
    vertex -5.220153254455281 -5.220153254455278 5.138764270216727
    vertex -4.764866183092527 -8.252990320383036 3.743342591040797
    vertex -3.691205765058355 -6.393355926272216 5.138764270216727
  endloop
endfacet
facet normal 4.114268327062429e-17 -4.864844305648142e-19 0.9999999999999999
  outer loop
    vertex 1.5862311464331924e-15 -7.049916206369744e-16 7.0
    vertex -1.2761115547877209 2.2102900490180466 6.789415967660127
    vertex -1.8046942678818159 1.8046942678818079 6.789415967660127
  endloop
endfacet
facet normal -0.5207705264371033 0.5207705264371038 0.6764585113581202
  outer loop
    vertex -8.07466295152487 8.074662951524868 2.0148372571648814
    vertex -6.499999999999996 11.2583302491977 0.0
    vertex -9.192388155425114 9.192388155425116 0.0
  endloop
endfacet
facet normal -0.3933852135776496 0.6813631768628235 0.6172457330382025
  outer loop
    vertex -6.499999999999996 11.2583302491977 0.0
    vertex -8.07466295152487 8.074662951524868 2.0148372571648814
    vertex -5.709648928819014 9.889402038095753 2.0148372571648814
  endloop
endfacet
facet normal -0.46304044716363635 0.12407131388044237 0.8776103083729592
  outer loop
    vertex -7.130861957233923 1.9107087027786471 5.138764270216727
    vertex -8.252990320383038 4.764866183092526 3.743342591040797
    vertex -9.205014610120969 2.4664762310986026 3.743342591040797
  endloop
endfacet
facet normal -0.5336858481732915 0.30812366810554376 0.7875526779922338
  outer loop
    vertex -8.252990320383038 4.764866183092526 3.743342591040797
    vertex -7.130861957233923 1.9107087027786471 5.138764270216727
    vertex -6.393355926272214 3.6912057650583536 5.138764270216727
  endloop
endfacet
facet normal -0.43575267032300613 -0.43575267032300585 0.7875526779922338
  outer loop
    vertex -6.738538379022371 -6.738538379022367 3.743342591040797
    vertex -6.393355926272216 -3.6912057650583523 5.138764270216727
    vertex -8.25299032038304 -4.764866183092521 3.743342591040797
  endloop
endfacet
facet normal -0.41515070754864425 -0.23968737275747326 0.8776103083729591
  outer loop
    vertex -6.393355926272216 -3.6912057650583523 5.138764270216727
    vertex -6.738538379022371 -6.738538379022367 3.743342591040797
    vertex -5.220153254455281 -5.220153254455278 5.138764270216727
  endloop
endfacet
facet normal -0.3682403706857645 -0.6378110314257404 0.6764585113581202
  outer loop
    vertex -5.709648928819022 -9.889402038095751 2.0148372571648814
    vertex -6.738538379022371 -6.738538379022367 3.743342591040797
    vertex -8.074662951524871 -8.074662951524866 2.0148372571648814
  endloop
endfacet
facet normal -0.43575267032300613 -0.43575267032300585 0.7875526779922338
  outer loop
    vertex -6.738538379022371 -6.738538379022367 3.743342591040797
    vertex -5.709648928819022 -9.889402038095751 2.0148372571648814
    vertex -4.764866183092527 -8.252990320383036 3.743342591040797
  endloop
endfacet
facet normal -0.3682403706857645 -0.6378110314257404 0.6764585113581202
  outer loop
    vertex -5.709648928819022 -9.889402038095751 2.0148372571648814
    vertex -9.19238815542512 -9.19238815542511 0.0
    vertex -6.5000000000000036 -11.258330249197694 0.0
  endloop
endfacet
facet normal -0.5563307042785494 -0.5563307042785489 0.617245733038202
  outer loop
    vertex -9.19238815542512 -9.19238815542511 0.0
    vertex -5.709648928819022 -9.889402038095751 2.0148372571648814
    vertex -8.074662951524871 -8.074662951524866 2.0148372571648814
  endloop
endfacet
facet normal -0.5952492174281317 0.15949654710512584 0.7875526779922338
  outer loop
    vertex -9.205014610120969 2.4664762310986026 3.743342591040797
    vertex -9.889402038095753 5.7096489288190195 2.0148372571648814
    vertex -11.030194718780004 2.955531767255141 2.0148372571648814
  endloop
endfacet
facet normal -0.6378110314257405 0.3682403706857644 0.6764585113581202
  outer loop
    vertex -9.889402038095753 5.7096489288190195 2.0148372571648814
    vertex -9.205014610120969 2.4664762310986026 3.743342591040797
    vertex -8.252990320383038 4.764866183092526 3.743342591040797
  endloop
endfacet
facet normal -0.32948247864077873 6.447609060233465e-17 0.9441616896849443
  outer loop
    vertex -5.035414989115692 -2.114974861910923e-15 6.1633596402319935
    vertex -7.130861957233923 1.9107087027786471 5.138764270216727
    vertex -7.382411530116705 -1.4099832412739487e-15 5.138764270216727
  endloop
endfacet
facet normal -0.46304044716363635 0.12407131388044237 0.8776103083729592
  outer loop
    vertex -7.130861957233923 1.9107087027786471 5.138764270216727
    vertex -5.035414989115692 -2.114974861910923e-15 6.1633596402319935
    vertex -4.863837384069933 1.3032612991778452 6.1633596402319935
  endloop
endfacet
facet normal -0.1206021266683882 0.12060212666838822 0.9853477833161873
  outer loop
    vertex -1.8046942678818159 1.8046942678818079 6.789415967660127
    vertex -2.5177074945578446 4.3607972991711295 6.1633596402319935
    vertex -3.560576084892093 3.5605760848920864 6.1633596402319935
  endloop
endfacet
facet normal -0.16474123932038937 0.28534019660477805 0.9441616896849443
  outer loop
    vertex -2.5177074945578446 4.3607972991711295 6.1633596402319935
    vertex -1.8046942678818159 1.8046942678818079 6.789415967660127
    vertex -1.2761115547877209 2.2102900490180466 6.789415967660127
  endloop
endfacet
facet normal -0.4793747455149464 1.3144778614695413e-16 0.8776103083729592
  outer loop
    vertex -7.382411530116705 -1.4099832412739487e-15 5.138764270216727
    vertex -9.205014610120969 2.4664762310986026 3.743342591040797
    vertex -9.529732366185048 -3.524958103184872e-16 3.743342591040797
  endloop
endfacet
facet normal -0.5952492174281317 0.15949654710512584 0.7875526779922338
  outer loop
    vertex -9.205014610120969 2.4664762310986026 3.743342591040797
    vertex -7.382411530116705 -1.4099832412739487e-15 5.138764270216727
    vertex -7.130861957233923 1.9107087027786471 5.138764270216727
  endloop
endfacet
facet normal -0.5336858481732915 0.30812366810554376 0.7875526779922338
  outer loop
    vertex -8.252990320383038 4.764866183092526 3.743342591040797
    vertex -8.07466295152487 8.074662951524868 2.0148372571648814
    vertex -9.889402038095753 5.7096489288190195 2.0148372571648814
  endloop
endfacet
facet normal -0.5207705264371033 0.5207705264371038 0.6764585113581202
  outer loop
    vertex -8.07466295152487 8.074662951524868 2.0148372571648814
    vertex -8.252990320383038 4.764866183092526 3.743342591040797
    vertex -6.738538379022372 6.738538379022367 3.743342591040797
  endloop
endfacet
facet normal -0.28534019660477805 0.1647412393203894 0.9441616896849443
  outer loop
    vertex -4.360797299171131 2.517707494557846 6.1633596402319935
    vertex -5.220153254455281 5.220153254455276 5.138764270216727
    vertex -6.393355926272214 3.6912057650583536 5.138764270216727
  endloop
endfacet
facet normal -0.33896913328319406 0.33896913328319406 0.8776103083729591
  outer loop
    vertex -5.220153254455281 5.220153254455276 5.138764270216727
    vertex -4.360797299171131 2.517707494557846 6.1633596402319935
    vertex -3.560576084892093 3.5605760848920864 6.1633596402319935
  endloop
endfacet
facet normal -0.3182556354288645 -0.08527634049981797 0.9441616896849442
  outer loop
    vertex -4.863837384069935 -1.3032612991778405 6.1633596402319935
    vertex -2.552223109575443 -3.1724622928663847e-15 6.789415967660127
    vertex -5.035414989115692 -2.114974861910923e-15 6.1633596402319935
  endloop
endfacet
facet normal -0.17055716318547254 3.661944518771829e-17 0.9853477833161872
  outer loop
    vertex -2.552223109575443 -3.1724622928663847e-15 6.789415967660127
    vertex -4.863837384069935 -1.3032612991778405 6.1633596402319935
    vertex -2.465258215990716 -0.6605639481089003 6.789415967660127
  endloop
endfacet
facet normal -0.7113857686552791 -0.19061524221817527 0.6764585113581202
  outer loop
    vertex -11.030194718780008 -2.955531767255132 2.0148372571648814
    vertex -9.529732366185048 -3.524958103184872e-16 3.743342591040797
    vertex -11.419297857638034 0.0 2.0148372571648814
  endloop
endfacet
facet normal -0.6162473362110874 2.1212477045013575e-16 0.7875526779922339
  outer loop
    vertex -9.529732366185048 -3.524958103184872e-16 3.743342591040797
    vertex -11.030194718780008 -2.955531767255132 2.0148372571648814
    vertex -9.20501461012097 -2.4664762310985955 3.743342591040797
  endloop
endfacet
facet normal 4.114268327062429e-17 -4.864844305648142e-19 0.9999999999999999
  outer loop
    vertex 1.5862311464331924e-15 -7.049916206369744e-16 7.0
    vertex -1.8046942678818159 1.8046942678818079 6.789415967660127
    vertex -2.2102900490180493 1.2761115547877202 6.789415967660127
  endloop
endfacet
facet normal -0.08527858159273628 0.14770683611602725 0.9853477833161872
  outer loop
    vertex -1.2761115547877209 2.2102900490180466 6.789415967660127
    vertex -1.3032612991778425 4.8638373840699325 6.1633596402319935
    vertex -2.5177074945578446 4.3607972991711295 6.1633596402319935
  endloop
endfacet
facet normal -0.08527634049981803 0.31825563542886454 0.9441616896849443
  outer loop
    vertex -1.3032612991778425 4.8638373840699325 6.1633596402319935
    vertex -1.2761115547877209 2.2102900490180466 6.789415967660127
    vertex -0.6605639481089016 2.4652582159907133 6.789415967660127
  endloop
endfacet
facet normal -0.435752670323006 0.43575267032300613 0.7875526779922338
  outer loop
    vertex -6.738538379022372 6.738538379022367 3.743342591040797
    vertex -5.709648928819014 9.889402038095753 2.0148372571648814
    vertex -8.07466295152487 8.074662951524868 2.0148372571648814
  endloop
endfacet
facet normal -0.368240370685764 0.6378110314257406 0.6764585113581201
  outer loop
    vertex -5.709648928819014 9.889402038095753 2.0148372571648814
    vertex -6.738538379022372 6.738538379022367 3.743342591040797
    vertex -4.764866183092522 8.252990320383041 3.743342591040797
  endloop
endfacet
facet normal -0.3182556354288646 0.08527634049981807 0.9441616896849443
  outer loop
    vertex -4.863837384069933 1.3032612991778452 6.1633596402319935
    vertex -6.393355926272214 3.6912057650583536 5.138764270216727
    vertex -7.130861957233923 1.9107087027786471 5.138764270216727
  endloop
endfacet
facet normal -0.4151507075486439 0.23968737275747326 0.8776103083729592
  outer loop
    vertex -6.393355926272214 3.6912057650583536 5.138764270216727
    vertex -4.863837384069933 1.3032612991778452 6.1633596402319935
    vertex -4.360797299171131 2.517707494557846 6.1633596402319935
  endloop
endfacet
facet normal -0.33896913328319406 0.33896913328319406 0.8776103083729591
  outer loop
    vertex -5.220153254455281 5.220153254455276 5.138764270216727
    vertex -4.764866183092522 8.252990320383041 3.743342591040797
    vertex -6.738538379022372 6.738538379022367 3.743342591040797
  endloop
endfacet
facet normal -0.3081236681055437 0.5336858481732918 0.7875526779922338
  outer loop
    vertex -4.764866183092522 8.252990320383041 3.743342591040797
    vertex -5.220153254455281 5.220153254455276 5.138764270216727
    vertex -3.691205765058351 6.393355926272214 5.138764270216727
  endloop
endfacet
facet normal 4.114268327062429e-17 -4.864844305648142e-19 0.9999999999999999
  outer loop
    vertex 1.5862311464331924e-15 -7.049916206369744e-16 7.0
    vertex -2.4652582159907146 0.6605639481089043 6.789415967660127
    vertex -2.552223109575443 -3.1724622928663847e-15 6.789415967660127
  endloop
endfacet
facet normal -0.7113857686552788 0.1906152422181757 0.6764585113581202
  outer loop
    vertex -11.030194718780004 2.955531767255141 2.0148372571648814
    vertex -12.999999999999996 1.5920408388915585e-15 0.0
    vertex -11.419297857638034 0.0 2.0148372571648814
  endloop
endfacet
facet normal -0.7867704271552997 2.7152377978443516e-16 0.6172457330382022
  outer loop
    vertex -12.999999999999996 1.5920408388915585e-15 0.0
    vertex -11.030194718780004 2.955531767255141 2.0148372571648814
    vertex -12.557035741757883 3.364647586332772 0.0
  endloop
endfacet
facet normal 4.114268327062429e-17 -4.864844305648142e-19 0.9999999999999999
  outer loop
    vertex 1.5862311464331924e-15 -7.049916206369744e-16 7.0
    vertex -2.465258215990716 -0.6605639481089003 6.789415967660127
    vertex -2.210290049018048 -1.2761115547877238 6.789415967660127
  endloop
endfacet
facet normal -0.28534019660477816 -0.1647412393203893 0.9441616896849443
  outer loop
    vertex -4.360797299171131 -2.517707494557846 6.1633596402319935
    vertex -2.465258215990716 -0.6605639481089003 6.789415967660127
    vertex -4.863837384069935 -1.3032612991778405 6.1633596402319935
  endloop
endfacet
facet normal -0.16474556877944704 -0.04414344211105877 0.9853477833161873
  outer loop
    vertex -2.465258215990716 -0.6605639481089003 6.789415967660127
    vertex -4.360797299171131 -2.517707494557846 6.1633596402319935
    vertex -2.210290049018048 -1.2761115547877238 6.789415967660127
  endloop
endfacet
facet normal -0.6378110314257406 -0.3682403706857639 0.6764585113581203
  outer loop
    vertex -9.889402038095755 -5.709648928819013 2.0148372571648814
    vertex -12.557035741757886 -3.3646475863327634 0.0
    vertex -11.258330249197702 -6.499999999999994 0.0
  endloop
endfacet
facet normal -0.7599618749497861 -0.20363117067123682 0.6172457330382022
  outer loop
    vertex -12.557035741757886 -3.3646475863327634 0.0
    vertex -9.889402038095755 -5.709648928819013 2.0148372571648814
    vertex -11.030194718780008 -2.955531767255132 2.0148372571648814
  endloop
endfacet
facet normal -0.23297929492904662 -0.23297929492904637 0.9441616896849443
  outer loop
    vertex -3.5605760848920918 -3.560576084892092 6.1633596402319935
    vertex -2.210290049018048 -1.2761115547877238 6.789415967660127
    vertex -4.360797299171131 -2.517707494557846 6.1633596402319935
  endloop
endfacet
facet normal -0.14770683611602728 -0.08527858159273623 0.9853477833161873
  outer loop
    vertex -2.210290049018048 -1.2761115547877238 6.789415967660127
    vertex -3.5605760848920918 -3.560576084892092 6.1633596402319935
    vertex -1.8046942678818116 -1.8046942678818156 6.789415967660127
  endloop
endfacet
facet normal -0.5207705264371033 0.5207705264371038 0.6764585113581202
  outer loop
    vertex -8.07466295152487 8.074662951524868 2.0148372571648814
    vertex -11.258330249197696 6.500000000000002 0.0
    vertex -9.889402038095753 5.7096489288190195 2.0148372571648814
  endloop
endfacet
facet normal -0.6813631768628233 0.39338521357765 0.617245733038202
  outer loop
    vertex -11.258330249197696 6.500000000000002 0.0
    vertex -8.07466295152487 8.074662951524868 2.0148372571648814
    vertex -9.192388155425114 9.192388155425116 0.0
  endloop
endfacet
facet normal -0.23297929492904637 0.23297929492904645 0.9441616896849443
  outer loop
    vertex -3.560576084892093 3.5605760848920864 6.1633596402319935
    vertex -3.691205765058351 6.393355926272214 5.138764270216727
    vertex -5.220153254455281 5.220153254455276 5.138764270216727
  endloop
endfacet
facet normal -0.23968737275747307 0.41515070754864386 0.8776103083729592
  outer loop
    vertex -3.691205765058351 6.393355926272214 5.138764270216727
    vertex -3.560576084892093 3.5605760848920864 6.1633596402319935
    vertex -2.5177074945578446 4.3607972991711295 6.1633596402319935
  endloop
endfacet
facet normal 4.114268327062429e-17 -4.864844305648142e-19 0.9999999999999999
  outer loop
    vertex 1.5862311464331924e-15 -7.049916206369744e-16 7.0
    vertex -2.552223109575443 -3.1724622928663847e-15 6.789415967660127
    vertex -2.465258215990716 -0.6605639481089003 6.789415967660127
  endloop
endfacet
facet normal 4.114268327062429e-17 -4.864844305648142e-19 0.9999999999999999
  outer loop
    vertex 1.5862311464331924e-15 -7.049916206369744e-16 7.0
    vertex -0.6605639481089016 2.4652582159907133 6.789415967660127
    vertex -1.2761115547877209 2.2102900490180466 6.789415967660127
  endloop
endfacet
facet normal -0.368240370685764 0.6378110314257406 0.6764585113581201
  outer loop
    vertex -5.709648928819014 9.889402038095753 2.0148372571648814
    vertex -3.364647586332767 12.557035741757884 0.0
    vertex -6.499999999999996 11.2583302491977 0.0
  endloop
endfacet
facet normal -0.20363117067123693 0.7599618749497857 0.6172457330382026
  outer loop
    vertex -3.364647586332767 12.557035741757884 0.0
    vertex -5.709648928819014 9.889402038095753 2.0148372571648814
    vertex -2.9555317672551347 11.030194718780004 2.0148372571648814
  endloop
endfacet
facet normal -0.14770683611602725 0.08527858159273631 0.9853477833161873
  outer loop
    vertex -2.2102900490180493 1.2761115547877202 6.789415967660127
    vertex -3.560576084892093 3.5605760848920864 6.1633596402319935
    vertex -4.360797299171131 2.517707494557846 6.1633596402319935
  endloop
endfacet
facet normal -0.23297929492904637 0.23297929492904645 0.9441616896849443
  outer loop
    vertex -3.560576084892093 3.5605760848920864 6.1633596402319935
    vertex -2.2102900490180493 1.2761115547877202 6.789415967660127
    vertex -1.8046942678818159 1.8046942678818079 6.789415967660127
  endloop
endfacet
facet normal -0.6378110314257406 -0.3682403706857639 0.6764585113581203
  outer loop
    vertex -9.889402038095755 -5.709648928819013 2.0148372571648814
    vertex -9.20501461012097 -2.4664762310985955 3.743342591040797
    vertex -11.030194718780008 -2.955531767255132 2.0148372571648814
  endloop
endfacet
facet normal -0.5952492174281319 -0.1594965471051256 0.7875526779922339
  outer loop
    vertex -9.20501461012097 -2.4664762310985955 3.743342591040797
    vertex -9.889402038095755 -5.709648928819013 2.0148372571648814
    vertex -8.25299032038304 -4.764866183092521 3.743342591040797
  endloop
endfacet
facet normal -0.6162473362110874 2.1212477045013575e-16 0.7875526779922339
  outer loop
    vertex -9.529732366185048 -3.524958103184872e-16 3.743342591040797
    vertex -11.030194718780004 2.955531767255141 2.0148372571648814
    vertex -11.419297857638034 0.0 2.0148372571648814
  endloop
endfacet
facet normal -0.7113857686552788 0.1906152422181757 0.6764585113581202
  outer loop
    vertex -11.030194718780004 2.955531767255141 2.0148372571648814
    vertex -9.529732366185048 -3.524958103184872e-16 3.743342591040797
    vertex -9.205014610120969 2.4664762310986026 3.743342591040797
  endloop
endfacet
facet normal -8.405827190817152e-17 -0.1705571631854726 0.9853477833161873
  outer loop
    vertex 4.229949723821846e-15 -2.5522231095754457 6.789415967660127
    vertex 1.5862311464331924e-15 -7.049916206369744e-16 7.0
    vertex -0.6605639481089064 -2.4652582159907164 6.789415967660127
  endloop
endfacet
facet normal -3.446274657810155e-16 -0.7364807413715283 0.6764585113581204
  outer loop
    vertex -7.049916206369744e-16 -11.419297857638036 2.0148372571648814
    vertex -3.3646475863327785 -12.55703574175788 0.0
    vertex -2.3880612583373378e-15 -12.999999999999996 0.0
  endloop
endfacet
facet normal -0.20363117067123748 -0.7599618749497861 0.617245733038202
  outer loop
    vertex -3.3646475863327785 -12.55703574175788 0.0
    vertex -7.049916206369744e-16 -11.419297857638036 2.0148372571648814
    vertex -2.955531767255145 -11.030194718780004 2.0148372571648814
  endloop
endfacet
facet normal 0.4357526703230062 -0.43575267032300663 0.7875526779922336
  outer loop
    vertex 6.738538379022371 -6.738538379022371 3.743342591040797
    vertex 6.393355926272218 -3.691205765058356 5.138764270216727
    vertex 5.220153254455282 -5.220153254455279 5.138764270216727
  endloop
endfacet
facet normal 0.4151507075486441 -0.2396873727574735 0.8776103083729591
  outer loop
    vertex 6.393355926272218 -3.691205765058356 5.138764270216727
    vertex 6.738538379022371 -6.738538379022371 3.743342591040797
    vertex 8.25299032038304 -4.764866183092527 3.743342591040797
  endloop
endfacet
facet normal 0.12060212666838815 -0.12060212666838828 0.9853477833161873
  outer loop
    vertex 1.8046942678818199 -1.8046942678818099 6.789415967660127
    vertex 1.5862311464331924e-15 -7.049916206369744e-16 7.0
    vertex 1.2761115547877184 -2.2102900490180533 6.789415967660127
  endloop
endfacet
facet normal 0.5207705264371032 -0.5207705264371039 0.6764585113581201
  outer loop
    vertex 8.074662951524866 -8.07466295152487 2.0148372571648814
    vertex 6.4999999999999885 -11.258330249197703 0.0
    vertex 9.192388155425112 -9.192388155425117 0.0
  endloop
endfacet
facet normal 0.3933852135776494 -0.6813631768628237 0.617245733038202
  outer loop
    vertex 6.4999999999999885 -11.258330249197703 0.0
    vertex 8.074662951524866 -8.07466295152487 2.0148372571648814
    vertex 5.709648928819008 -9.889402038095758 2.0148372571648814
  endloop
endfacet
facet normal -3.446274657810155e-16 -0.7364807413715283 0.6764585113581204
  outer loop
    vertex -7.049916206369744e-16 -11.419297857638036 2.0148372571648814
    vertex -2.4664762310986066 -9.205014610120967 3.743342591040797
    vertex -2.955531767255145 -11.030194718780004 2.0148372571648814
  endloop
endfacet
facet normal -0.159496547105126 -0.5952492174281316 0.7875526779922338
  outer loop
    vertex -2.4664762310986066 -9.205014610120967 3.743342591040797
    vertex -7.049916206369744e-16 -11.419297857638036 2.0148372571648814
    vertex 3.524958103184872e-16 -9.529732366185048 3.743342591040797
  endloop
endfacet
facet normal 0.5336858481732918 -0.3081236681055441 0.7875526779922335
  outer loop
    vertex 8.25299032038304 -4.764866183092527 3.743342591040797
    vertex 7.130861957233925 -1.9107087027786525 5.138764270216727
    vertex 6.393355926272218 -3.691205765058356 5.138764270216727
  endloop
endfacet
facet normal 0.46304044716363657 -0.12407131388044264 0.877610308372959
  outer loop
    vertex 7.130861957233925 -1.9107087027786525 5.138764270216727
    vertex 8.25299032038304 -4.764866183092527 3.743342591040797
    vertex 9.205014610120969 -2.466476231098608 3.743342591040797
  endloop
endfacet
facet normal 0.17055716318547223 -1.1096801572035844e-18 0.9853477833161873
  outer loop
    vertex 2.55222310957544 -3.524958103184872e-16 6.789415967660127
    vertex 1.5862311464331924e-15 -7.049916206369744e-16 7.0
    vertex 2.465258215990719 -0.6605639481089072 6.789415967660127
  endloop
endfacet
facet normal 0.46304044716363657 -0.12407131388044264 0.877610308372959
  outer loop
    vertex 7.130861957233925 -1.9107087027786525 5.138764270216727
    vertex 5.035414989115689 -3.524958103184872e-16 6.1633596402319935
    vertex 4.863837384069938 -1.3032612991778492 6.1633596402319935
  endloop
endfacet
facet normal 0.32948247864077873 -9.560247916897895e-17 0.9441616896849443
  outer loop
    vertex 5.035414989115689 -3.524958103184872e-16 6.1633596402319935
    vertex 7.130861957233925 -1.9107087027786525 5.138764270216727
    vertex 7.382411530116702 -3.524958103184872e-16 5.138764270216727
  endloop
endfacet
facet normal 0.5952492174281321 -0.15949654710512612 0.7875526779922334
  outer loop
    vertex 9.205014610120969 -2.466476231098608 3.743342591040797
    vertex 7.382411530116702 -3.524958103184872e-16 5.138764270216727
    vertex 7.130861957233925 -1.9107087027786525 5.138764270216727
  endloop
endfacet
facet normal 0.47937474551494624 -2.1165321498238376e-16 0.8776103083729592
  outer loop
    vertex 7.382411530116702 -3.524958103184872e-16 5.138764270216727
    vertex 9.205014610120969 -2.466476231098608 3.743342591040797
    vertex 9.529732366185048 -2.6437185773886536e-16 3.743342591040797
  endloop
endfacet
facet normal 0.7867704271552991 -1.9662066811976335e-16 0.6172457330382026
  outer loop
    vertex 12.999999999999996 0.0 0.0
    vertex 11.030194718780002 -2.9555317672551453 2.0148372571648814
    vertex 12.55703574175788 -3.364647586332779 0.0
  endloop
endfacet
facet normal 0.7113857686552791 -0.19061524221817597 0.6764585113581199
  outer loop
    vertex 11.030194718780002 -2.9555317672551453 2.0148372571648814
    vertex 12.999999999999996 0.0 0.0
    vertex 11.41929785763803 -1.762479051592436e-16 2.0148372571648814
  endloop
endfacet
facet normal -0.12407131388044265 -0.4630404471636366 0.8776103083729588
  outer loop
    vertex -1.910708702778652 -7.1308619572339245 5.138764270216727
    vertex -2.5177074945578477 -4.360797299171132 6.1633596402319935
    vertex -3.691205765058355 -6.393355926272216 5.138764270216727
  endloop
endfacet
facet normal -0.16474123932038962 -0.28534019660477794 0.9441616896849442
  outer loop
    vertex -2.5177074945578477 -4.360797299171132 6.1633596402319935
    vertex -1.910708702778652 -7.1308619572339245 5.138764270216727
    vertex -1.303261299177848 -4.863837384069934 6.1633596402319935
  endloop
endfacet
facet normal 0.2329792949290464 -0.2329792949290466 0.9441616896849443
  outer loop
    vertex 3.5605760848920966 -3.56057608489209 6.1633596402319935
    vertex 2.210290049018054 -1.276111554787721 6.789415967660127
    vertex 1.8046942678818199 -1.8046942678818099 6.789415967660127
  endloop
endfacet
facet normal 0.1477068361160272 -0.08527858159273635 0.9853477833161873
  outer loop
    vertex 2.210290049018054 -1.276111554787721 6.789415967660127
    vertex 3.5605760848920966 -3.56057608489209 6.1633596402319935
    vertex 4.360797299171135 -2.5177074945578477 6.1633596402319935
  endloop
endfacet
facet normal 0.5207705264371032 -0.5207705264371039 0.6764585113581201
  outer loop
    vertex 8.074662951524866 -8.07466295152487 2.0148372571648814
    vertex 8.25299032038304 -4.764866183092527 3.743342591040797
    vertex 6.738538379022371 -6.738538379022371 3.743342591040797
  endloop
endfacet
facet normal 0.5336858481732918 -0.3081236681055441 0.7875526779922335
  outer loop
    vertex 8.25299032038304 -4.764866183092527 3.743342591040797
    vertex 8.074662951524866 -8.07466295152487 2.0148372571648814
    vertex 9.88940203809575 -5.709648928819022 2.0148372571648814
  endloop
endfacet
facet normal 0.16474556877944732 -0.044143442111058966 0.9853477833161872
  outer loop
    vertex 2.465258215990719 -0.6605639481089072 6.789415967660127
    vertex 1.5862311464331924e-15 -7.049916206369744e-16 7.0
    vertex 2.210290049018054 -1.276111554787721 6.789415967660127
  endloop
endfacet
facet normal -1.634135399748826e-16 -0.32948247864077873 0.9441616896849442
  outer loop
    vertex 2.8199664825478975e-15 -5.035414989115694 6.1633596402319935
    vertex -0.6605639481089064 -2.4652582159907164 6.789415967660127
    vertex -1.303261299177848 -4.863837384069934 6.1633596402319935
  endloop
endfacet
facet normal -0.04414344211105897 -0.16474556877944704 0.9853477833161872
  outer loop
    vertex -0.6605639481089064 -2.4652582159907164 6.789415967660127
    vertex 2.8199664825478975e-15 -5.035414989115694 6.1633596402319935
    vertex 4.229949723821846e-15 -2.5522231095754457 6.789415967660127
  endloop
endfacet
facet normal 0.7599618749497856 -0.20363117067123745 0.6172457330382024
  outer loop
    vertex 12.55703574175788 -3.364647586332779 0.0
    vertex 9.88940203809575 -5.709648928819022 2.0148372571648814
    vertex 11.258330249197694 -6.5000000000000036 0.0
  endloop
endfacet
facet normal 0.6378110314257405 -0.3682403706857647 0.6764585113581199
  outer loop
    vertex 9.88940203809575 -5.709648928819022 2.0148372571648814
    vertex 12.55703574175788 -3.364647586332779 0.0
    vertex 11.030194718780002 -2.9555317672551453 2.0148372571648814
  endloop
endfacet
facet normal 0.36824037068576376 -0.6378110314257408 0.6764585113581203
  outer loop
    vertex 5.709648928819008 -9.889402038095758 2.0148372571648814
    vertex 3.364647586332763 -12.557035741757886 0.0
    vertex 6.4999999999999885 -11.258330249197703 0.0
  endloop
endfacet
facet normal 0.20363117067123673 -0.7599618749497862 0.6172457330382021
  outer loop
    vertex 3.364647586332763 -12.557035741757886 0.0
    vertex 5.709648928819008 -9.889402038095758 2.0148372571648814
    vertex 2.955531767255131 -11.03019471878001 2.0148372571648814
  endloop
endfacet
facet normal 0.08527634049981793 -0.31825563542886454 0.9441616896849442
  outer loop
    vertex 1.30326129917784 -4.863837384069938 6.1633596402319935
    vertex 1.2761115547877184 -2.2102900490180533 6.789415967660127
    vertex 0.6605639481089003 -2.465258215990719 6.789415967660127
  endloop
endfacet
facet normal 0.08527858159273621 -0.14770683611602733 0.9853477833161872
  outer loop
    vertex 1.2761115547877184 -2.2102900490180533 6.789415967660127
    vertex 1.30326129917784 -4.863837384069938 6.1633596402319935
    vertex 2.517707494557841 -4.360797299171137 6.1633596402319935
  endloop
endfacet
facet normal 0.28534019660477805 -0.16474123932038956 0.9441616896849442
  outer loop
    vertex 4.360797299171135 -2.5177074945578477 6.1633596402319935
    vertex 2.465258215990719 -0.6605639481089072 6.789415967660127
    vertex 2.210290049018054 -1.276111554787721 6.789415967660127
  endloop
endfacet
facet normal 0.16474556877944732 -0.044143442111058966 0.9853477833161872
  outer loop
    vertex 2.465258215990719 -0.6605639481089072 6.789415967660127
    vertex 4.360797299171135 -2.5177074945578477 6.1633596402319935
    vertex 4.863837384069938 -1.3032612991778492 6.1633596402319935
  endloop
endfacet
facet normal 0.7113857686552791 -0.19061524221817597 0.6764585113581199
  outer loop
    vertex 11.030194718780002 -2.9555317672551453 2.0148372571648814
    vertex 9.529732366185048 -2.6437185773886536e-16 3.743342591040797
    vertex 9.205014610120969 -2.466476231098608 3.743342591040797
  endloop
endfacet
facet normal 0.6162473362110876 -2.3222080133488544e-16 0.7875526779922337
  outer loop
    vertex 9.529732366185048 -2.6437185773886536e-16 3.743342591040797
    vertex 11.030194718780002 -2.9555317672551453 2.0148372571648814
    vertex 11.41929785763803 -1.762479051592436e-16 2.0148372571648814
  endloop
endfacet
facet normal -2.1388114356114567e-16 -0.47937474551494674 0.877610308372959
  outer loop
    vertex 1.762479051592436e-15 -7.382411530116707 5.138764270216727
    vertex -1.303261299177848 -4.863837384069934 6.1633596402319935
    vertex -1.910708702778652 -7.1308619572339245 5.138764270216727
  endloop
endfacet
facet normal -0.08527634049981825 -0.3182556354288645 0.9441616896849442
  outer loop
    vertex -1.303261299177848 -4.863837384069934 6.1633596402319935
    vertex 1.762479051592436e-15 -7.382411530116707 5.138764270216727
    vertex 2.8199664825478975e-15 -5.035414989115694 6.1633596402319935
  endloop
endfacet
facet normal 0.1240713138804422 -0.4630404471636367 0.8776103083729588
  outer loop
    vertex 1.910708702778641 -7.130861957233929 5.138764270216727
    vertex 2.517707494557841 -4.360797299171137 6.1633596402319935
    vertex 1.30326129917784 -4.863837384069938 6.1633596402319935
  endloop
endfacet
facet normal 0.16474123932038925 -0.28534019660477816 0.9441616896849443
  outer loop
    vertex 2.517707494557841 -4.360797299171137 6.1633596402319935
    vertex 1.910708702778641 -7.130861957233929 5.138764270216727
    vertex 3.6912057650583465 -6.393355926272221 5.138764270216727
  endloop
endfacet
facet normal -0.08527634049981825 -0.3182556354288645 0.9441616896849442
  outer loop
    vertex -1.303261299177848 -4.863837384069934 6.1633596402319935
    vertex -1.276111554787722 -2.2102900490180506 6.789415967660127
    vertex -2.5177074945578477 -4.360797299171132 6.1633596402319935
  endloop
endfacet
facet normal -0.08527858159273642 -0.14770683611602725 0.9853477833161873
  outer loop
    vertex -1.276111554787722 -2.2102900490180506 6.789415967660127
    vertex -1.303261299177848 -4.863837384069934 6.1633596402319935
    vertex -0.6605639481089064 -2.4652582159907164 6.789415967660127
  endloop
endfacet
facet normal 0.19061524221817522 -0.7113857686552792 0.6764585113581202
  outer loop
    vertex 2.955531767255131 -11.03019471878001 2.0148372571648814
    vertex 4.764866183092515 -8.252990320383043 3.743342591040797
    vertex 2.466476231098594 -9.20501461012097 3.743342591040797
  endloop
endfacet
facet normal 0.3081236681055436 -0.533685848173292 0.7875526779922337
  outer loop
    vertex 4.764866183092515 -8.252990320383043 3.743342591040797
    vertex 2.955531767255131 -11.03019471878001 2.0148372571648814
    vertex 5.709648928819008 -9.889402038095758 2.0148372571648814
  endloop
endfacet
facet normal 0.36824037068576376 -0.6378110314257408 0.6764585113581203
  outer loop
    vertex 5.709648928819008 -9.889402038095758 2.0148372571648814
    vertex 6.738538379022371 -6.738538379022371 3.743342591040797
    vertex 4.764866183092515 -8.252990320383043 3.743342591040797
  endloop
endfacet
facet normal 0.4357526703230062 -0.43575267032300663 0.7875526779922336
  outer loop
    vertex 6.738538379022371 -6.738538379022371 3.743342591040797
    vertex 5.709648928819008 -9.889402038095758 2.0148372571648814
    vertex 8.074662951524866 -8.07466295152487 2.0148372571648814
  endloop
endfacet
facet normal 0.08527634049981793 -0.31825563542886454 0.9441616896849442
  outer loop
    vertex 1.30326129917784 -4.863837384069938 6.1633596402319935
    vertex 4.229949723821846e-15 -2.5522231095754457 6.789415967660127
    vertex 2.8199664825478975e-15 -5.035414989115694 6.1633596402319935
  endloop
endfacet
facet normal -8.405827190817152e-17 -0.1705571631854726 0.9853477833161873
  outer loop
    vertex 4.229949723821846e-15 -2.5522231095754457 6.789415967660127
    vertex 1.30326129917784 -4.863837384069938 6.1633596402319935
    vertex 0.6605639481089003 -2.465258215990719 6.789415967660127
  endloop
endfacet
facet normal 0.33896913328319417 -0.33896913328319445 0.8776103083729591
  outer loop
    vertex 5.220153254455282 -5.220153254455279 5.138764270216727
    vertex 4.360797299171135 -2.5177074945578477 6.1633596402319935
    vertex 3.5605760848920966 -3.56057608489209 6.1633596402319935
  endloop
endfacet
facet normal 0.28534019660477805 -0.16474123932038956 0.9441616896849442
  outer loop
    vertex 4.360797299171135 -2.5177074945578477 6.1633596402319935
    vertex 5.220153254455282 -5.220153254455279 5.138764270216727
    vertex 6.393355926272218 -3.691205765058356 5.138764270216727
  endloop
endfacet
facet normal -0.19061524221817586 -0.7113857686552788 0.6764585113581203
  outer loop
    vertex -2.955531767255145 -11.030194718780004 2.0148372571648814
    vertex -4.764866183092527 -8.252990320383036 3.743342591040797
    vertex -5.709648928819022 -9.889402038095751 2.0148372571648814
  endloop
endfacet
facet normal -0.308123668105544 -0.5336858481732916 0.7875526779922338
  outer loop
    vertex -4.764866183092527 -8.252990320383036 3.743342591040797
    vertex -2.955531767255145 -11.030194718780004 2.0148372571648814
    vertex -2.4664762310986066 -9.205014610120967 3.743342591040797
  endloop
endfacet
facet normal 0.15949654710512554 -0.595249217428132 0.7875526779922337
  outer loop
    vertex 2.466476231098594 -9.20501461012097 3.743342591040797
    vertex 3.6912057650583465 -6.393355926272221 5.138764270216727
    vertex 1.910708702778641 -7.130861957233929 5.138764270216727
  endloop
endfacet
facet normal 0.23968737275747315 -0.4151507075486444 0.8776103083729588
  outer loop
    vertex 3.6912057650583465 -6.393355926272221 5.138764270216727
    vertex 2.466476231098594 -9.20501461012097 3.743342591040797
    vertex 4.764866183092515 -8.252990320383043 3.743342591040797
  endloop
endfacet
facet normal 0.31825563542886476 -0.08527634049981828 0.9441616896849442
  outer loop
    vertex 4.863837384069938 -1.3032612991778492 6.1633596402319935
    vertex 2.55222310957544 -3.524958103184872e-16 6.789415967660127
    vertex 2.465258215990719 -0.6605639481089072 6.789415967660127
  endloop
endfacet
facet normal 0.17055716318547223 -1.1096801572035844e-18 0.9853477833161873
  outer loop
    vertex 2.55222310957544 -3.524958103184872e-16 6.789415967660127
    vertex 4.863837384069938 -1.3032612991778492 6.1633596402319935
    vertex 5.035414989115689 -3.524958103184872e-16 6.1633596402319935
  endloop
endfacet
facet normal -2.992075709507177e-16 -0.6162473362110874 0.7875526779922338
  outer loop
    vertex 3.524958103184872e-16 -9.529732366185048 3.743342591040797
    vertex -1.910708702778652 -7.1308619572339245 5.138764270216727
    vertex -2.4664762310986066 -9.205014610120967 3.743342591040797
  endloop
endfacet
facet normal -0.12407131388044265 -0.4630404471636366 0.8776103083729588
  outer loop
    vertex -1.910708702778652 -7.1308619572339245 5.138764270216727
    vertex 3.524958103184872e-16 -9.529732366185048 3.743342591040797
    vertex 1.762479051592436e-15 -7.382411530116707 5.138764270216727
  endloop
endfacet
facet normal 0.16474123932038925 -0.28534019660477816 0.9441616896849443
  outer loop
    vertex 2.517707494557841 -4.360797299171137 6.1633596402319935
    vertex 1.8046942678818199 -1.8046942678818099 6.789415967660127
    vertex 1.2761115547877184 -2.2102900490180533 6.789415967660127
  endloop
endfacet
facet normal 0.12060212666838815 -0.12060212666838828 0.9853477833161873
  outer loop
    vertex 1.8046942678818199 -1.8046942678818099 6.789415967660127
    vertex 2.517707494557841 -4.360797299171137 6.1633596402319935
    vertex 3.5605760848920966 -3.56057608489209 6.1633596402319935
  endloop
endfacet
facet normal 0.19061524221817522 -0.7113857686552792 0.6764585113581202
  outer loop
    vertex 2.955531767255131 -11.03019471878001 2.0148372571648814
    vertex 3.524958103184872e-16 -9.529732366185048 3.743342591040797
    vertex -7.049916206369744e-16 -11.419297857638036 2.0148372571648814
  endloop
endfacet
facet normal -2.992075709507177e-16 -0.6162473362110874 0.7875526779922338
  outer loop
    vertex 3.524958103184872e-16 -9.529732366185048 3.743342591040797
    vertex 2.955531767255131 -11.03019471878001 2.0148372571648814
    vertex 2.466476231098594 -9.20501461012097 3.743342591040797
  endloop
endfacet
facet normal 4.114268327062429e-17 -4.864844305648142e-19 0.9999999999999999
  outer loop
    vertex 1.5862311464331924e-15 -7.049916206369744e-16 7.0
    vertex -1.276111554787722 -2.2102900490180506 6.789415967660127
    vertex -0.6605639481089064 -2.4652582159907164 6.789415967660127
  endloop
endfacet
facet normal -0.19061524221817586 -0.7113857686552788 0.6764585113581203
  outer loop
    vertex -2.955531767255145 -11.030194718780004 2.0148372571648814
    vertex -6.5000000000000036 -11.258330249197694 0.0
    vertex -3.3646475863327785 -12.55703574175788 0.0
  endloop
endfacet
facet normal -0.3933852135776503 -0.6813631768628235 0.6172457330382018
  outer loop
    vertex -6.5000000000000036 -11.258330249197694 0.0
    vertex -2.955531767255145 -11.030194718780004 2.0148372571648814
    vertex -5.709648928819022 -9.889402038095751 2.0148372571648814
  endloop
endfacet
facet normal 0.04414344211105875 -0.16474556877944707 0.9853477833161872
  outer loop
    vertex 0.6605639481089003 -2.465258215990719 6.789415967660127
    vertex 1.5862311464331924e-15 -7.049916206369744e-16 7.0
    vertex 4.229949723821846e-15 -2.5522231095754457 6.789415967660127
  endloop
endfacet
facet normal 0.15949654710512554 -0.595249217428132 0.7875526779922337
  outer loop
    vertex 2.466476231098594 -9.20501461012097 3.743342591040797
    vertex 1.762479051592436e-15 -7.382411530116707 5.138764270216727
    vertex 3.524958103184872e-16 -9.529732366185048 3.743342591040797
  endloop
endfacet
facet normal -2.1388114356114567e-16 -0.47937474551494674 0.877610308372959
  outer loop
    vertex 1.762479051592436e-15 -7.382411530116707 5.138764270216727
    vertex 2.466476231098594 -9.20501461012097 3.743342591040797
    vertex 1.910708702778641 -7.130861957233929 5.138764270216727
  endloop
endfacet
facet normal 0.19061524221817522 -0.7113857686552792 0.6764585113581202
  outer loop
    vertex 2.955531767255131 -11.03019471878001 2.0148372571648814
    vertex -2.3880612583373378e-15 -12.999999999999996 0.0
    vertex 3.364647586332763 -12.557035741757886 0.0
  endloop
endfacet
facet normal -3.9324133623952665e-16 -0.7867704271552998 0.6172457330382018
  outer loop
    vertex -2.3880612583373378e-15 -12.999999999999996 0.0
    vertex 2.955531767255131 -11.03019471878001 2.0148372571648814
    vertex -7.049916206369744e-16 -11.419297857638036 2.0148372571648814
  endloop
endfacet
facet normal 0.3081236681055436 -0.533685848173292 0.7875526779922337
  outer loop
    vertex 4.764866183092515 -8.252990320383043 3.743342591040797
    vertex 5.220153254455282 -5.220153254455279 5.138764270216727
    vertex 3.6912057650583465 -6.393355926272221 5.138764270216727
  endloop
endfacet
facet normal 0.33896913328319417 -0.33896913328319445 0.8776103083729591
  outer loop
    vertex 5.220153254455282 -5.220153254455279 5.138764270216727
    vertex 4.764866183092515 -8.252990320383043 3.743342591040797
    vertex 6.738538379022371 -6.738538379022371 3.743342591040797
  endloop
endfacet
facet normal 0.1477068361160272 -0.08527858159273635 0.9853477833161873
  outer loop
    vertex 2.210290049018054 -1.276111554787721 6.789415967660127
    vertex 1.5862311464331924e-15 -7.049916206369744e-16 7.0
    vertex 1.8046942678818199 -1.8046942678818099 6.789415967660127
  endloop
endfacet
facet normal 0.6813631768628232 -0.3933852135776501 0.6172457330382023
  outer loop
    vertex 11.258330249197694 -6.5000000000000036 0.0
    vertex 8.074662951524866 -8.07466295152487 2.0148372571648814
    vertex 9.192388155425112 -9.192388155425117 0.0
  endloop
endfacet
facet normal 0.5207705264371032 -0.5207705264371039 0.6764585113581201
  outer loop
    vertex 8.074662951524866 -8.07466295152487 2.0148372571648814
    vertex 11.258330249197694 -6.5000000000000036 0.0
    vertex 9.88940203809575 -5.709648928819022 2.0148372571648814
  endloop
endfacet
facet normal 0.23968737275747315 -0.4151507075486444 0.8776103083729588
  outer loop
    vertex 3.6912057650583465 -6.393355926272221 5.138764270216727
    vertex 3.5605760848920966 -3.56057608489209 6.1633596402319935
    vertex 2.517707494557841 -4.360797299171137 6.1633596402319935
  endloop
endfacet
facet normal 0.2329792949290464 -0.2329792949290466 0.9441616896849443
  outer loop
    vertex 3.5605760848920966 -3.56057608489209 6.1633596402319935
    vertex 3.6912057650583465 -6.393355926272221 5.138764270216727
    vertex 5.220153254455282 -5.220153254455279 5.138764270216727
  endloop
endfacet
facet normal 0.4151507075486441 -0.2396873727574735 0.8776103083729591
  outer loop
    vertex 6.393355926272218 -3.691205765058356 5.138764270216727
    vertex 4.863837384069938 -1.3032612991778492 6.1633596402319935
    vertex 4.360797299171135 -2.5177074945578477 6.1633596402319935
  endloop
endfacet
facet normal 0.31825563542886476 -0.08527634049981828 0.9441616896849442
  outer loop
    vertex 4.863837384069938 -1.3032612991778492 6.1633596402319935
    vertex 6.393355926272218 -3.691205765058356 5.138764270216727
    vertex 7.130861957233925 -1.9107087027786525 5.138764270216727
  endloop
endfacet
facet normal -0.159496547105126 -0.5952492174281316 0.7875526779922338
  outer loop
    vertex -2.4664762310986066 -9.205014610120967 3.743342591040797
    vertex -3.691205765058355 -6.393355926272216 5.138764270216727
    vertex -4.764866183092527 -8.252990320383036 3.743342591040797
  endloop
endfacet
facet normal -0.23968737275747362 -0.415150707548644 0.8776103083729591
  outer loop
    vertex -3.691205765058355 -6.393355926272216 5.138764270216727
    vertex -2.4664762310986066 -9.205014610120967 3.743342591040797
    vertex -1.910708702778652 -7.1308619572339245 5.138764270216727
  endloop
endfacet
facet normal 0.1240713138804422 -0.4630404471636367 0.8776103083729588
  outer loop
    vertex 1.910708702778641 -7.130861957233929 5.138764270216727
    vertex 2.8199664825478975e-15 -5.035414989115694 6.1633596402319935
    vertex 1.762479051592436e-15 -7.382411530116707 5.138764270216727
  endloop
endfacet
facet normal -1.634135399748826e-16 -0.32948247864077873 0.9441616896849442
  outer loop
    vertex 2.8199664825478975e-15 -5.035414989115694 6.1633596402319935
    vertex 1.910708702778641 -7.130861957233929 5.138764270216727
    vertex 1.30326129917784 -4.863837384069938 6.1633596402319935
  endloop
endfacet
facet normal 0.6378110314257405 -0.3682403706857647 0.6764585113581199
  outer loop
    vertex 9.88940203809575 -5.709648928819022 2.0148372571648814
    vertex 9.205014610120969 -2.466476231098608 3.743342591040797
    vertex 8.25299032038304 -4.764866183092527 3.743342591040797
  endloop
endfacet
facet normal 0.5952492174281321 -0.15949654710512612 0.7875526779922334
  outer loop
    vertex 9.205014610120969 -2.466476231098608 3.743342591040797
    vertex 9.88940203809575 -5.709648928819022 2.0148372571648814
    vertex 11.030194718780002 -2.9555317672551453 2.0148372571648814
  endloop
endfacet
endsolid Untitled-54d6e313
